<svg width="3" height="63" viewBox="0 0 3 63" fill="none" xmlns="http://www.w3.org/2000/svg">
<path fill-rule="evenodd" clip-rule="evenodd" d="M1.5 3C2.32843 3 3 2.32843 3 1.5C3 0.671573 2.32843 0 1.5 0C0.671573 0 0 0.671573 0 1.5C0 2.32843 0.671573 3 1.5 3ZM1.5 15C2.32843 15 3 14.3284 3 13.5C3 12.6716 2.32843 12 1.5 12C0.671573 12 0 12.6716 0 13.5C0 14.3284 0.671573 15 1.5 15ZM3 25.5C3 26.3284 2.32843 27 1.5 27C0.671573 27 0 26.3284 0 25.5C0 24.6716 0.671573 24 1.5 24C2.32843 24 3 24.6716 3 25.5ZM1.5 39C2.32843 39 3 38.3284 3 37.5C3 36.6716 2.32843 36 1.5 36C0.671573 36 0 36.6716 0 37.5C0 38.3284 0.671573 39 1.5 39ZM3 49.5C3 50.3284 2.32843 51 1.5 51C0.671573 51 0 50.3284 0 49.5C0 48.6716 0.671573 48 1.5 48C2.32843 48 3 48.6716 3 49.5ZM1.5 63C2.32843 63 3 62.3284 3 61.5C3 60.6716 2.32843 60 1.5 60C0.671573 60 0 60.6716 0 61.5C0 62.3284 0.671573 63 1.5 63Z" fill="#C6C5CE"/>
</svg>
