<svg width="47" height="35" viewBox="0 0 47 35" fill="none" xmlns="http://www.w3.org/2000/svg">
<path opacity="0.3" d="M38.5 0.8C34.2541 0.8 30.8 4.25412 30.8 8.5C30.8 12.7459 34.2541 16.2 38.5 16.2C42.7459 16.2 46.2 12.7459 46.2 8.5C46.2 4.25412 42.7459 0.8 38.5 0.8ZM38.5 14.8625C34.9918 14.8625 32.1375 12.0082 32.1375 8.5C32.1375 4.99183 34.9918 2.1375 38.5 2.1375C42.0082 2.1375 44.8625 4.99183 44.8625 8.5C44.8625 12.0082 42.0082 14.8625 38.5 14.8625Z" fill="url(#paint0_linear)" stroke="url(#paint1_linear)" stroke-width="0.4" stroke-linecap="round" stroke-linejoin="round"/>
<path opacity="0.3" d="M39.1285 5C39.1285 4.8067 38.9718 4.65 38.7785 4.65H38C37.8067 4.65 37.65 4.8067 37.65 5V8.74C37.65 8.83772 37.6908 8.93098 37.7627 8.99724L40.2122 11.2572C40.3463 11.3809 40.5528 11.3809 40.6869 11.2572L41.2373 10.7494C41.3092 10.6831 41.35 10.5899 41.35 10.4922C41.35 10.3944 41.3092 10.3012 41.2373 10.2349L39.1285 8.2893V5Z" fill="url(#paint2_linear)" stroke="url(#paint3_linear)" stroke-width="0.7" stroke-linecap="round" stroke-linejoin="round"/>
<path d="M36.2772 21.6913L33.2879 20.3334L30.633 16.1078C29.8122 14.7905 28.3631 13.99 26.8127 14.0001H15.3621C13.9536 14.0001 12.6363 14.6588 11.7749 15.7633L8.36001 20.2422L2.65497 21.8027C1.08431 22.2385 4.84461e-05 23.6774 4.84461e-05 25.3088V27.5179C-0.0100848 29.4939 1.57071 31.1051 3.5467 31.1254C3.56697 31.1254 3.5771 31.1254 3.59737 31.1254H3.9115C4.64109 33.5269 7.17442 34.8848 9.58614 34.1552C11.0453 33.7195 12.1803 32.5744 12.616 31.1254H25.3029C26.0325 33.5269 28.5658 34.8848 30.9775 34.1552C32.4367 33.7195 33.5716 32.5744 34.0074 31.1254H34.7572C36.7636 31.1254 38.4153 29.5243 38.4153 27.528V25.0048C38.4052 23.5761 37.5743 22.279 36.2772 21.6913ZM8.26881 32.3616C6.88055 32.3616 5.74562 31.2368 5.74562 29.8384C5.74562 28.4502 6.87042 27.3152 8.26881 27.3152C9.65707 27.3152 10.792 28.44 10.792 29.8384C10.7819 31.2267 9.65707 32.3616 8.26881 32.3616ZM29.6501 32.3616C28.2618 32.3616 27.1269 31.2368 27.1269 29.8384C27.1269 28.4502 28.2517 27.3152 29.6501 27.3152C31.0383 27.3152 32.1732 28.44 32.1732 29.8384C32.1732 31.2267 31.0484 32.3616 29.6501 32.3616ZM34.7572 29.0987H34.1391C33.7946 26.9707 31.9098 25.2582 29.6501 25.2582C27.3802 25.2582 25.4954 26.9707 25.161 29.0987H12.7579C12.4133 26.9707 10.5285 25.2582 8.26881 25.2582C6.00909 25.2582 4.11416 26.9707 3.76963 29.0987H3.59737C2.74617 29.1088 2.04697 28.4299 2.03684 27.5787C2.03684 27.5584 2.03684 27.5483 2.03684 27.528V25.319C2.02671 24.5995 2.50297 23.9611 3.19203 23.7686L9.24161 22.1067C9.45441 22.0459 9.64694 21.9243 9.77867 21.7419L13.3963 16.9894C13.8624 16.3814 14.592 16.0166 15.3621 16.0166H26.8026C27.6538 16.0065 28.4543 16.4524 28.9002 17.1718L31.7172 21.6609C31.8186 21.8331 31.9807 21.9649 32.153 22.0459L35.426 23.5254C36.0036 23.7889 36.3684 24.3563 36.3786 24.9846V27.528H36.3887C36.3887 28.4096 35.649 29.0987 34.7572 29.0987Z" fill="url(#paint4_linear)"/>
<defs>
<linearGradient id="paint0_linear" x1="30.9995" y1="8.50005" x2="45.9998" y2="8.50005" gradientUnits="userSpaceOnUse">
<stop stop-color="#7CCDDA"/>
<stop offset="1" stop-color="#4E93C9"/>
</linearGradient>
<linearGradient id="paint1_linear" x1="30.9995" y1="8.50005" x2="45.9998" y2="8.50005" gradientUnits="userSpaceOnUse">
<stop stop-color="#7CCDDA"/>
<stop offset="1" stop-color="#4E93C9"/>
</linearGradient>
<linearGradient id="paint2_linear" x1="37.9999" y1="8.00002" x2="41" y2="8.00002" gradientUnits="userSpaceOnUse">
<stop stop-color="#7CCDDA"/>
<stop offset="1" stop-color="#4E93C9"/>
</linearGradient>
<linearGradient id="paint3_linear" x1="37.9999" y1="8.00002" x2="41" y2="8.00002" gradientUnits="userSpaceOnUse">
<stop stop-color="#7CCDDA"/>
<stop offset="1" stop-color="#4E93C9"/>
</linearGradient>
<linearGradient id="paint4_linear" x1="-0.0013555" y1="24.1763" x2="38.4149" y2="24.1763" gradientUnits="userSpaceOnUse">
<stop stop-color="#7CCDDA"/>
<stop offset="1" stop-color="#4E93C9"/>
</linearGradient>
</defs>
</svg>
