<svg width="41" height="41" viewBox="0 0 41 41" fill="none" xmlns="http://www.w3.org/2000/svg">
<path d="M39.072 7.22317L36.3764 5.99875L33.9824 2.18841C33.2423 1.00053 31.9356 0.278668 30.5376 0.287805H20.2122C18.9421 0.287805 17.7542 0.881743 16.9775 1.87773L13.8982 5.91651L8.75375 7.32369C7.33744 7.7166 6.35972 9.01412 6.35972 10.4853V12.4772C6.35059 14.2591 7.77604 15.7119 9.55785 15.7302C9.57613 15.7302 9.58526 15.7302 9.60354 15.7302H9.8868C10.5447 17.8958 12.8291 19.1202 15.0038 18.4623C16.3196 18.0694 17.343 17.0369 17.7359 15.7302H29.1761C29.834 17.8958 32.1184 19.1202 34.2931 18.4623C35.6089 18.0694 36.6323 17.0369 37.0252 15.7302H37.7014C39.5106 15.7302 41 14.2865 41 12.4864V10.2111C40.9909 8.92275 40.2416 7.75315 39.072 7.22317ZM13.8159 16.845C12.5641 16.845 11.5407 15.8307 11.5407 14.5697C11.5407 13.3179 12.555 12.2945 13.8159 12.2945C15.0678 12.2945 16.0912 13.3088 16.0912 14.5697C16.082 15.8216 15.0678 16.845 13.8159 16.845ZM33.0961 16.845C31.8442 16.845 30.8208 15.8307 30.8208 14.5697C30.8208 13.3179 31.8351 12.2945 33.0961 12.2945C34.3479 12.2945 35.3713 13.3088 35.3713 14.5697C35.3713 15.8216 34.357 16.845 33.0961 16.845ZM37.7014 13.9027H37.144C36.8333 11.9838 35.1337 10.4396 33.0961 10.4396C31.0493 10.4396 29.3497 11.9838 29.0482 13.9027H17.8638C17.5532 11.9838 15.8536 10.4396 13.8159 10.4396C11.7783 10.4396 10.0696 11.9838 9.75888 13.9027H9.60354C8.83599 13.9118 8.2055 13.2996 8.19636 12.5321C8.19636 12.5138 8.19636 12.5047 8.19636 12.4864V10.4944C8.18723 9.84564 8.61669 9.26997 9.23804 9.09636L14.6931 7.59781C14.885 7.54299 15.0586 7.43334 15.1774 7.26886L18.4395 2.98337C18.8598 2.43512 19.5177 2.10617 20.2122 2.10617H30.5284C31.296 2.09703 32.0178 2.49908 32.4199 3.14785L34.9601 7.19576C35.0515 7.3511 35.1977 7.46989 35.353 7.54299L38.3045 8.87706C38.8253 9.11464 39.1542 9.62634 39.1634 10.1929V12.4864H39.1725C39.1725 13.2813 38.5055 13.9027 37.7014 13.9027Z" fill="url(#paint0_linear)"/>
<path opacity="0.3" d="M38.0943 20.1255L38.012 20.0341C37.4181 19.4493 36.6231 19.1204 35.7916 19.1113H35.7733C34.9327 19.1113 34.1286 19.4585 33.5438 20.0616C31.4422 22.1997 27.842 25.8365 26.9282 26.7593L20.3675 27.7188L19.3441 26.3573L24.123 24.8862C25.6673 24.4201 26.5993 22.8028 26.2429 21.2037C25.8774 19.5955 24.324 18.563 22.6976 18.8463L12.3539 20.491C11.6229 20.6007 10.9285 20.9113 10.3619 21.3865L0 31.4559L7.78516 40.7122L12.957 34.9921L27.047 34.517C27.9882 34.4804 28.8837 34.0875 29.5598 33.4205L38.1491 24.4749L38.1582 24.4657C39.3096 23.2323 39.273 21.3224 38.0943 20.1255ZM36.815 23.2139L28.2532 32.123C27.9151 32.4611 27.4582 32.6621 26.9739 32.6804L12.1163 33.1829L7.83084 37.9253L2.49454 31.5747L11.5681 22.7662C11.8696 22.5194 12.2351 22.3641 12.6189 22.3001L22.9991 20.6554H23.0174C23.6753 20.5457 24.3149 20.9569 24.4702 21.6148C24.6256 22.2727 24.2509 22.9398 23.6022 23.1499L16.3287 25.3886L19.5725 29.7015L27.8054 28.5045L28.0247 28.2852C28.0704 28.2395 32.4473 23.8261 34.8596 21.3681C35.1063 21.1214 35.4444 20.9752 35.7916 20.9752C36.1297 20.9752 36.4587 21.1031 36.7145 21.3316L36.7785 21.4047C37.281 21.889 37.3084 22.7022 36.815 23.2139Z" fill="url(#paint1_linear)"/>
<defs>
<linearGradient id="paint0_linear" x1="6.35846" y1="9.46399" x2="40.9997" y2="9.46399" gradientUnits="userSpaceOnUse">
<stop stop-color="#7CCDDA"/>
<stop offset="1" stop-color="#4E93C9"/>
</linearGradient>
<linearGradient id="paint1_linear" x1="-0.00137615" y1="29.756" x2="39" y2="29.756" gradientUnits="userSpaceOnUse">
<stop stop-color="#7CCDDA"/>
<stop offset="1" stop-color="#4E93C9"/>
</linearGradient>
</defs>
</svg>
