<svg width="44" height="39" viewBox="0 0 44 39" fill="none" xmlns="http://www.w3.org/2000/svg">
<path d="M15.1581 34.4682L15.1579 34.4681C9.53582 31.5596 6.04209 25.8236 6.04209 19.4995V17.7376C6.04209 16.2252 7.27264 14.9946 8.78504 14.9946H33.4526C34.9649 14.9946 36.1955 16.2251 36.1955 17.7374V19.4993C36.1955 25.8253 32.7018 31.5594 27.0779 34.4662M15.1581 34.4682L27.032 34.3774M15.1581 34.4682C15.6386 34.7153 16.231 34.5291 16.4803 34.0463L16.4804 34.0462C16.7274 33.5658 16.5413 32.9734 16.0585 32.724C11.0912 30.1546 8.00403 25.088 8.00403 19.4994V17.7375C8.00403 17.3064 8.35397 16.9565 8.78504 16.9565H33.4526C33.8837 16.9565 34.2336 17.3064 34.2336 17.7375V19.4994C34.2336 25.0879 31.1464 30.1545 26.1774 32.7222M15.1581 34.4682L26.2233 32.811M27.0779 34.4662L27.032 34.3774M27.0779 34.4662C27.078 34.4662 27.0781 34.4661 27.0782 34.4661L27.032 34.3774M27.0779 34.4662C26.9347 34.5408 26.7814 34.5761 26.6285 34.5761C26.2736 34.5761 25.9303 34.382 25.7556 34.0446L25.7555 34.0444C25.5085 33.5639 25.6946 32.9714 26.1774 32.7222M27.032 34.3774C26.9034 34.4444 26.7659 34.4761 26.6285 34.4761C26.3096 34.4761 26.0013 34.3017 25.8445 33.9986C25.6224 33.5669 25.7899 33.0348 26.2233 32.811M26.1774 32.7222C26.1774 32.7222 26.1774 32.7222 26.1774 32.7222L26.2233 32.811M26.1774 32.7222L26.2233 32.811" fill="url(#paint0_linear)" stroke="url(#paint1_linear)" stroke-width="0.2"/>
<path d="M3.01967 36.2649L3.01975 36.265C4.20491 37.4483 5.77725 38.1002 7.45127 38.1002H34.7864C36.4604 38.1002 38.0345 37.4484 39.2214 36.265L39.2216 36.2649L41.1967 34.288C41.1967 34.288 41.1967 34.288 41.1967 34.288C41.4772 34.0074 41.5616 33.5855 41.4085 33.2185C41.2557 32.8521 40.8988 32.6125 40.5022 32.6125H1.73895C1.34239 32.6125 0.985477 32.8521 0.832631 33.2185C0.679535 33.5855 0.763959 34.0074 1.04447 34.288C1.04448 34.288 1.04449 34.288 1.0445 34.288L3.01967 36.2649ZM37.8326 34.8777C37.0198 35.6906 35.9369 36.1382 34.7882 36.1382H7.45127C6.30255 36.1382 5.21969 35.6906 4.40686 34.8777L4.10539 34.5763H38.1341L37.8326 34.8777Z" fill="url(#paint2_linear)" stroke="url(#paint3_linear)" stroke-width="0.2"/>
<path d="M41.4937 19.1705L41.4938 19.1706C42.6606 19.9241 43.2434 21.2289 43.2433 23.0234C43.2433 24.4837 42.5492 25.7097 41.5143 26.7243C40.4803 27.738 39.1008 28.5464 37.7132 29.1761C34.9388 30.4351 32.1083 30.9897 31.8733 31.0346C31.8733 31.0346 31.8732 31.0346 31.8731 31.0346L31.2566 31.1558C31.2564 31.1559 31.2561 31.1559 31.2559 31.156C31.1907 31.1697 31.1276 31.1756 31.065 31.1756C30.6059 31.1756 30.1958 30.852 30.1036 30.3849L30.1035 30.3847C29.9996 29.8533 30.3446 29.3373 30.8765 29.2331L30.8765 29.2331L30.8958 29.3312L30.8766 29.2331L41.4937 19.1705ZM41.4937 19.1705C40.2739 18.3863 38.7003 18.4246 37.3952 18.6733C36.0863 18.9228 35.0239 19.3885 34.8086 19.4859L34.8081 19.4861C34.3161 19.7115 34.0961 20.2921 34.3218 20.7867C34.5473 21.2808 35.1263 21.4987 35.6223 21.2732L41.4937 19.1705Z" fill="url(#paint4_linear)" stroke="url(#paint5_linear)" stroke-width="0.2"/>
<path opacity="0.3" d="M28.0563 7.778L28.0563 7.77806C27.6175 8.32547 27.3951 9.06514 27.3948 9.8092C27.3946 10.5532 27.6166 11.2919 28.0544 11.8375L28.0563 7.778ZM28.0563 7.778C29.518 5.95129 29.518 3.09612 28.0563 1.26941L28.0563 1.26937M28.0563 7.778L28.0563 1.26937M28.0563 1.26937C27.7171 0.845954 27.1028 0.775062 26.677 1.11644M28.0563 1.26937L26.677 1.11644M26.677 1.11644C26.2535 1.45575 26.1847 2.07184 26.5241 2.49561M26.677 1.11644L26.5224 6.55526M26.5241 2.49561C26.9611 3.04119 27.1828 3.77995 27.1825 4.52408C27.1823 5.26817 26.9603 6.00786 26.5224 6.55526M26.5241 2.49561L26.6022 2.43309L26.5241 2.49561C26.5241 2.49561 26.5241 2.49561 26.5241 2.49561ZM26.5224 6.55526L26.6004 6.61777L26.5224 6.55532C25.0589 8.38205 25.0589 11.2372 26.5224 13.0639C26.7166 13.3071 27.0013 13.4327 27.2893 13.4327C27.5032 13.4327 27.7211 13.362 27.9017 13.2168C28.3251 12.8776 28.3941 12.2597 28.0545 11.8376L26.5224 6.55526Z" fill="url(#paint6_linear)" stroke="url(#paint7_linear)" stroke-width="0.2"/>
<path opacity="0.3" d="M22.7632 7.77792C24.2267 5.95124 24.2267 3.0961 22.7633 1.26937C22.4257 0.845451 21.8076 0.776982 21.384 1.11629C20.9606 1.45549 20.8915 2.07345 21.2311 2.49556C21.669 3.04114 21.891 3.77987 21.8908 4.52396C21.8906 5.26803 21.6681 6.00772 21.2294 6.55513L21.2293 6.55519C19.7676 8.3819 19.7676 11.2371 21.2293 13.0638M22.7632 7.77792L22.6852 7.7154L22.7633 7.77787C22.7633 7.77789 22.7633 7.77791 22.7632 7.77792ZM22.7632 7.77792C22.3253 8.32533 22.1033 9.065 22.1031 9.80908C22.1029 10.5532 22.3245 11.292 22.7615 11.8376C23.101 12.2614 23.0321 12.8775 22.6085 13.2168L22.6083 13.217C22.4264 13.3617 22.2105 13.4326 21.9963 13.4326C21.7082 13.4326 21.4235 13.307 21.2293 13.0638M21.2293 13.0638L21.3074 13.0013L21.2292 13.0637C21.2293 13.0637 21.2293 13.0638 21.2293 13.0638Z" fill="url(#paint8_linear)" stroke="url(#paint9_linear)" stroke-width="0.2"/>
<path opacity="0.3" d="M17.4844 7.77983L17.4844 7.77989C17.0456 8.32732 16.8232 9.06655 16.8229 9.81039C16.8227 10.5542 17.0448 11.293 17.4827 11.8396C17.8222 12.2617 17.7531 12.8796 17.3297 13.2188L17.3293 13.2191C17.149 13.3622 16.9313 13.4328 16.7174 13.4328C16.4294 13.4328 16.1447 13.3072 15.9505 13.064C14.487 11.2373 14.487 8.38215 15.9505 6.55542L17.4844 7.77983ZM17.4844 7.77983C18.9461 5.95315 18.9461 3.09804 17.4845 1.27133M17.4844 7.77983L17.4845 1.27133M15.9522 2.4957L15.9522 2.49565C15.6147 2.07369 15.6832 1.45575 16.1052 1.1182L15.9522 2.4957ZM15.9522 2.4957C16.3892 3.04128 16.6109 3.78004 16.6106 4.52418M15.9522 2.4957L16.6106 4.52418M17.4845 1.27133C17.147 0.847614 16.5308 0.777045 16.1052 1.11819L17.4845 1.27133ZM16.6106 4.52418C16.6104 5.26827 16.3884 6.00795 15.9505 6.55536L16.6106 4.52418Z" fill="url(#paint10_linear)" stroke="url(#paint11_linear)" stroke-width="0.2"/>
<defs>
<linearGradient id="paint0_linear" x1="6.14103" y1="24.786" x2="36.0952" y2="24.786" gradientUnits="userSpaceOnUse">
<stop stop-color="#7CCDDA"/>
<stop offset="1" stop-color="#4E93C9"/>
</linearGradient>
<linearGradient id="paint1_linear" x1="6.14103" y1="24.786" x2="36.0952" y2="24.786" gradientUnits="userSpaceOnUse">
<stop stop-color="#7CCDDA"/>
<stop offset="1" stop-color="#4E93C9"/>
</linearGradient>
<linearGradient id="paint2_linear" x1="0.855748" y1="35.3564" x2="41.3835" y2="35.3564" gradientUnits="userSpaceOnUse">
<stop stop-color="#7CCDDA"/>
<stop offset="1" stop-color="#4E93C9"/>
</linearGradient>
<linearGradient id="paint3_linear" x1="0.855748" y1="35.3564" x2="41.3835" y2="35.3564" gradientUnits="userSpaceOnUse">
<stop stop-color="#7CCDDA"/>
<stop offset="1" stop-color="#4E93C9"/>
</linearGradient>
<linearGradient id="paint4_linear" x1="30.1846" y1="24.8451" x2="43.1431" y2="24.8451" gradientUnits="userSpaceOnUse">
<stop stop-color="#7CCDDA"/>
<stop offset="1" stop-color="#4E93C9"/>
</linearGradient>
<linearGradient id="paint5_linear" x1="30.1846" y1="24.8451" x2="43.1431" y2="24.8451" gradientUnits="userSpaceOnUse">
<stop stop-color="#7CCDDA"/>
<stop offset="1" stop-color="#4E93C9"/>
</linearGradient>
<linearGradient id="paint6_linear" x1="25.5247" y1="7.16639" x2="29.0526" y2="7.16639" gradientUnits="userSpaceOnUse">
<stop stop-color="#7CCDDA"/>
<stop offset="1" stop-color="#4E93C9"/>
</linearGradient>
<linearGradient id="paint7_linear" x1="25.5247" y1="7.16639" x2="29.0526" y2="7.16639" gradientUnits="userSpaceOnUse">
<stop stop-color="#7CCDDA"/>
<stop offset="1" stop-color="#4E93C9"/>
</linearGradient>
<linearGradient id="paint8_linear" x1="20.2329" y1="7.16663" x2="23.7608" y2="7.16663" gradientUnits="userSpaceOnUse">
<stop stop-color="#7CCDDA"/>
<stop offset="1" stop-color="#4E93C9"/>
</linearGradient>
<linearGradient id="paint9_linear" x1="20.2329" y1="7.16663" x2="23.7608" y2="7.16663" gradientUnits="userSpaceOnUse">
<stop stop-color="#7CCDDA"/>
<stop offset="1" stop-color="#4E93C9"/>
</linearGradient>
<linearGradient id="paint10_linear" x1="14.9528" y1="7.16735" x2="18.4807" y2="7.16735" gradientUnits="userSpaceOnUse">
<stop stop-color="#7CCDDA"/>
<stop offset="1" stop-color="#4E93C9"/>
</linearGradient>
<linearGradient id="paint11_linear" x1="14.9528" y1="7.16735" x2="18.4807" y2="7.16735" gradientUnits="userSpaceOnUse">
<stop stop-color="#7CCDDA"/>
<stop offset="1" stop-color="#4E93C9"/>
</linearGradient>
</defs>
</svg>
