<svg width="58" height="58" viewBox="0 0 58 58" fill="none" xmlns="http://www.w3.org/2000/svg">
<path opacity="0.2" fill-rule="evenodd" clip-rule="evenodd" d="M0 0H2.84528V2.84528H0V0ZM0 13.7887H2.84528V16.634H0V13.7887ZM2.84528 27.5774H0V30.4226H2.84528V27.5774ZM0 41.366H2.84528V44.2113H0V41.366ZM2.84528 55.1547H0V58H2.84528V55.1547ZM13.7886 0H16.6339V2.84528H13.7886V0ZM16.6339 13.7887H13.7886V16.634H16.6339V13.7887ZM13.7886 27.5774H16.6339V30.4226H13.7886V27.5774ZM16.6339 41.366H13.7886V44.2113H16.6339V41.366ZM13.7886 55.1547H16.6339V58H13.7886V55.1547ZM30.4226 0H27.5774V2.84528H30.4226V0ZM27.5774 13.7887H30.4226V16.634H27.5774V13.7887ZM30.4226 27.5774H27.5774V30.4226H30.4226V27.5774ZM27.5774 41.366H30.4226V44.2113H27.5774V41.366ZM30.4226 55.1547H27.5774V58H30.4226V55.1547ZM41.366 0H44.2113V2.84528H41.366V0ZM44.2113 13.7887H41.366V16.634H44.2113V13.7887ZM41.366 27.5774H44.2113V30.4226H41.366V27.5774ZM44.2113 41.366H41.366V44.2113H44.2113V41.366ZM41.366 55.1547H44.2113V58H41.366V55.1547ZM58 0H55.1547V2.84528H58V0ZM55.1547 13.7887H58V16.634H55.1547V13.7887ZM58 27.5774H55.1547V30.4226H58V27.5774ZM55.1547 41.366H58V44.2113H55.1547V41.366ZM58 55.1547H55.1547V58H58V55.1547Z" fill="#0097D1"/>
</svg>
