<svg width="28" height="28" viewBox="0 0 28 28" fill="none" xmlns="http://www.w3.org/2000/svg">
<path d="M17.2083 5.71668C16.1432 6.08418 15.092 6.55902 14 7.17152C10.9737 5.47518 8.26933 4.80085 4.6865 4.68535C4.0355 4.66435 3.5 5.20102 3.5 5.85202V19.6619C3.5 20.293 4.00517 20.8169 4.63633 20.8262C8.24367 20.881 10.9597 21.546 14 23.3334C17.0403 21.546 19.7563 20.881 23.3637 20.8273C23.9948 20.818 24.5 20.2942 24.5 19.6619V5.85202C24.5 5.19985 23.9645 4.66435 23.3135 4.68535C22.6065 4.70868 21.9403 4.76002 21.2917 4.83002" stroke="#0097D1" stroke-width="1.5" stroke-linecap="round" stroke-linejoin="round"/>
<path fill-rule="evenodd" clip-rule="evenodd" d="M19.9052 3.51867C19.2623 3.633 18.6393 3.77883 18.0268 3.95733C17.5368 4.09967 17.209 4.56517 17.209 5.075V9.97034L19.2507 8.60884L21.2923 9.97034V4.67017C21.2923 3.93983 20.625 3.39033 19.9052 3.51867Z" stroke="#0097D1" stroke-width="1.5" stroke-linecap="round" stroke-linejoin="round"/>
<path d="M13.9993 7.17499V23.3333" stroke="#0097D1" stroke-width="1.5" stroke-linecap="round" stroke-linejoin="round"/>
<path d="M17.5 16.0685C18.6212 15.6963 19.7703 15.4595 21 15.3218" stroke="#0097D1" stroke-width="1.5" stroke-linecap="round" stroke-linejoin="round"/>
<path d="M7 15.3218C8.22967 15.4583 9.37883 15.6963 10.5 16.0685" stroke="#0097D1" stroke-width="1.5" stroke-linecap="round" stroke-linejoin="round"/>
<path d="M10.5 11.4019C9.37883 11.0297 8.22967 10.7917 7 10.6552" stroke="#0097D1" stroke-width="1.5" stroke-linecap="round" stroke-linejoin="round"/>
</svg>
