<svg width="73" height="84" viewBox="0 0 73 84" fill="none" xmlns="http://www.w3.org/2000/svg">
<path d="M36.7029 83.8178L36.4565 83.6356C21.9207 72.9458 11.5116 59.5633 5.49608 43.8525C0.466035 30.7332 -0.108827 19.4158 0.0143574 13.8482C0.0348882 12.9978 0.158073 9.4953 0.424973 9.31309C9.10949 3.46204 21.9002 0.161967 36.436 0C36.7645 0 37.1135 0 37.442 0C52.6553 0 66.452 3.52278 72.5496 8.96891C72.7344 9.15112 73.2271 13.423 72.8781 19.4563C72.0363 34.0738 66.2877 61.8308 37.2572 83.6356L36.785 84L36.7029 83.8178Z" fill="white"/>
<path opacity="0.5" d="M50.6542 31.8725C51.9709 33.1893 51.9709 35.3241 50.6542 36.6408C49.3375 37.9575 47.2027 37.9575 45.886 36.6408C44.5693 35.3241 44.5693 33.1893 45.886 31.8725C47.2027 30.5558 49.3375 30.5558 50.6542 31.8725" stroke="#0097D1" stroke-width="2" stroke-linecap="round" stroke-linejoin="round"/>
<path d="M39.6708 25.8539C41.6983 27.8814 41.6983 31.1686 39.6708 33.1961C37.6434 35.2235 34.3562 35.2235 32.3287 33.1961C30.3012 31.1686 30.3012 27.8814 32.3287 25.8539C34.3562 23.8265 37.6434 23.8265 39.6708 25.8539" stroke="#0097D1" stroke-width="2" stroke-linecap="round" stroke-linejoin="round"/>
<path opacity="0.5" d="M26.1142 31.8725C27.4309 33.1893 27.4309 35.3241 26.1142 36.6408C24.7975 37.9575 22.6627 37.9575 21.3459 36.6408C20.0292 35.3241 20.0292 33.1893 21.3459 31.8725C22.6627 30.5558 24.7975 30.5558 26.1142 31.8725" stroke="#0097D1" stroke-width="2" stroke-linecap="round" stroke-linejoin="round"/>
<path opacity="0.5" d="M54.3332 47.6667V45.84C54.3332 43.5383 52.4682 41.6733 50.1665 41.6733H48.8315" stroke="#0097D1" stroke-width="2" stroke-linecap="round" stroke-linejoin="round"/>
<path opacity="0.5" d="M17.6665 47.6667V45.84C17.6665 43.5383 19.5315 41.6733 21.8332 41.6733H23.1682" stroke="#0097D1" stroke-width="2" stroke-linecap="round" stroke-linejoin="round"/>
<path d="M44.8979 47.6667V44.9983C44.8979 41.7767 42.2863 39.165 39.0646 39.165H32.9329C29.7113 39.165 27.0996 41.7767 27.0996 44.9983V47.6667" stroke="#0097D1" stroke-width="2" stroke-linecap="round" stroke-linejoin="round"/>
</svg>
