<svg width="28" height="28" viewBox="0 0 28 28" fill="none" xmlns="http://www.w3.org/2000/svg">
<path fill-rule="evenodd" clip-rule="evenodd" d="M21.483 7.483L18.1837 4.18367C17.7462 3.74617 17.1524 3.5 16.534 3.5H8.16671C6.87754 3.5 5.83337 4.54417 5.83337 5.83333V22.1667C5.83337 23.4558 6.87754 24.5 8.16671 24.5H19.8334C21.1225 24.5 22.1667 23.4558 22.1667 22.1667V9.13267C22.1667 8.51433 21.9205 7.9205 21.483 7.483V7.483Z" stroke="white" stroke-width="1.5" stroke-linecap="round" stroke-linejoin="round"/>
<path d="M22.1667 9.33333H17.5C16.856 9.33333 16.3334 8.81067 16.3334 8.16667V3.5" stroke="white" stroke-width="1.5" stroke-linecap="round" stroke-linejoin="round"/>
<path fill-rule="evenodd" clip-rule="evenodd" d="M17.465 21H10.535C9.87121 21 9.33337 20.4622 9.33337 19.7984V14.035C9.33337 13.3712 9.87121 12.8334 10.535 12.8334H17.465C18.1289 12.8334 18.6667 13.3712 18.6667 14.035V19.7984C18.6667 20.4622 18.1289 21 17.465 21V21Z" stroke="white" stroke-width="1.5" stroke-linecap="round" stroke-linejoin="round"/>
<path d="M15.8259 16.2517L14.3944 17.3717C14.1774 17.542 13.8717 17.5432 13.6535 17.3752L12.1742 16.2412" stroke="white" stroke-width="1.5" stroke-linecap="round" stroke-linejoin="round"/>
</svg>
