<svg width="28" height="28" viewBox="0 0 28 28" fill="none" xmlns="http://www.w3.org/2000/svg">
<path d="M14.0013 25.6667V24.5" stroke="#0097D1" stroke-width="1.5" stroke-linecap="round" stroke-linejoin="round"/>
<path d="M6.63964 23.695L7.36297 22.9717" stroke="#0097D1" stroke-width="1.5" stroke-linecap="round" stroke-linejoin="round"/>
<path d="M22.75 16.3333H23.9167" stroke="#0097D1" stroke-width="1.5" stroke-linecap="round" stroke-linejoin="round"/>
<path d="M4.08398 16.3333H5.25065" stroke="#0097D1" stroke-width="1.5" stroke-linecap="round" stroke-linejoin="round"/>
<path d="M20.6396 22.9717L21.363 23.695" stroke="#0097D1" stroke-width="1.5" stroke-linecap="round" stroke-linejoin="round"/>
<path d="M17.4378 12.8958C19.3363 14.7943 19.3363 17.8724 17.4378 19.771C15.5392 21.6695 12.4611 21.6695 10.5626 19.771C8.66404 17.8724 8.66404 14.7943 10.5626 12.8958C12.4611 10.9972 15.5392 10.9972 17.4378 12.8958" stroke="#0097D1" stroke-width="1.5" stroke-linecap="round" stroke-linejoin="round"/>
<path d="M19.1687 6.99996H8.83203" stroke="#0097D1" stroke-width="1.5" stroke-linecap="round" stroke-linejoin="round"/>
<path d="M18.29 14.091L22.742 9.09998C23.1235 8.67298 23.3346 8.11998 23.3346 7.54715V4.66665C23.3346 3.38331 22.2846 2.33331 21.0013 2.33331H7.0013C5.71214 2.33331 4.66797 3.37748 4.66797 4.66665V7.54715C4.66797 8.11998 4.87914 8.67298 5.26064 9.09998L9.71263 14.091" stroke="#0097D1" stroke-width="1.5" stroke-linecap="round" stroke-linejoin="round"/>
<path d="M5.33203 3.0683L12.927 11.5966" stroke="#0097D1" stroke-width="1.5" stroke-linecap="round" stroke-linejoin="round"/>
<path d="M22.6692 3.0683L15.0742 11.5966" stroke="#0097D1" stroke-width="1.5" stroke-linecap="round" stroke-linejoin="round"/>
</svg>
