<svg width="18" height="18" viewBox="0 0 18 18" fill="none" xmlns="http://www.w3.org/2000/svg">
<path d="M4.02911 17.8353H0.297321V6.49506H4.02911V17.8353ZM2.16121 4.94815C0.967902 4.94815 0 4.01545 0 2.88939C8.54116e-09 2.34851 0.227698 1.82977 0.633002 1.44731C1.03831 1.06484 1.58802 0.849976 2.16121 0.849976C2.73439 0.849976 3.2841 1.06484 3.68941 1.44731C4.09471 1.82977 4.32241 2.34851 4.32241 2.88939C4.32241 4.01545 3.35411 4.94815 2.16121 4.94815ZM17.996 17.8353H14.2722V12.3149C14.2722 10.9993 14.2441 9.3121 12.332 9.3121C10.3918 9.3121 10.0945 10.7415 10.0945 12.2201V17.8353H6.3667V6.49506H9.9458V8.04197H9.99804C10.4963 7.15098 11.7133 6.2107 13.5289 6.2107C17.3057 6.2107 18 8.5576 18 11.6059V17.8353H17.996Z" fill="white"/>
</svg>
