<svg width="46" height="41" viewBox="0 0 46 41" fill="none" xmlns="http://www.w3.org/2000/svg">
<g opacity="0.4">
<mask id="path-1-inside-1" fill="white">
<path fill-rule="evenodd" clip-rule="evenodd" d="M19.5933 5.08527C20.1128 6.19853 19.6304 7.57154 18.48 8.05395C15.7711 9.20468 13.7672 10.689 12.4313 12.5066C11.9458 13.1798 11.5259 13.9186 11.1736 14.7229C9.63681 18.2315 12.9797 21.5243 16.8101 21.5243C18.0347 21.5243 19.0366 22.5259 19.0366 23.7508V38.3344C19.0366 39.559 18.0347 40.561 16.8101 40.561H2.22651C1.00193 40.561 0 39.559 0 38.3344V26.9422C0 21.413 0.519518 17.0717 1.48434 13.88C2.44916 10.7258 4.23036 7.86841 6.86506 5.38251C9.01735 3.26733 11.7263 1.52324 14.8805 0.187331C15.9937 -0.29545 17.2554 0.187331 17.7749 1.26311L19.5933 5.08527ZM45.7918 5.08535C46.311 6.19861 45.8289 7.57162 44.6786 8.05403C41.9696 9.20476 39.9658 10.6891 38.6299 12.507C38.1513 13.1708 37.7365 13.8982 37.3872 14.6895C35.8323 18.2123 39.195 21.5248 43.0458 21.5248C44.2704 21.5248 45.2723 22.5263 45.2723 23.7513V38.3349C45.2723 39.5595 44.2704 40.5614 43.0458 40.5614H28.4622C27.2376 40.5614 26.2357 39.5595 26.2357 38.3349V26.9426C26.2357 21.3763 26.7177 17.0343 27.6825 13.9175C28.6477 10.7633 30.4656 7.90597 33.1007 5.38259C35.2897 3.30452 37.9619 1.56042 41.079 0.224519C42.1923 -0.257891 43.454 0.224519 43.9735 1.30066L45.7918 5.08535Z"/>
</mask>
<path d="M18.48 8.05395L9.19856 -14.0787L9.14747 -14.0573L9.09647 -14.0356L18.48 8.05395ZM19.5933 5.08527L41.3416 -5.064L41.304 -5.14462L41.2658 -5.22495L19.5933 5.08527ZM12.4313 12.5066L-6.90707 -1.70701L-6.97117 -1.6198L-7.03448 -1.53201L12.4313 12.5066ZM1.48434 13.88L-21.466 6.85987L-21.4775 6.8976L-21.489 6.93537L1.48434 13.88ZM6.86506 5.38251L23.3355 22.8389L23.5132 22.6712L23.6874 22.5L6.86506 5.38251ZM14.8805 0.187331L24.2403 22.287L24.335 22.2469L24.4292 22.206L14.8805 0.187331ZM17.7749 1.26311L39.4475 -9.04712L39.4173 -9.11054L39.3868 -9.17379L17.7749 1.26311ZM44.6786 8.05403L35.3971 -14.0786L35.346 -14.0572L35.295 -14.0355L44.6786 8.05403ZM45.7918 5.08535L67.543 -5.05792L67.4845 -5.18326L67.4247 -5.30791L45.7918 5.08535ZM38.6299 12.507L19.2901 -1.70467L19.2259 -1.61735L19.1626 -1.52946L38.6299 12.507ZM27.6825 13.9175L50.6091 21.0147L50.6207 20.9774L50.6321 20.9401L27.6825 13.9175ZM33.1007 5.38259L16.577 -12.0234L16.5392 -11.9874L16.5015 -11.9514L33.1007 5.38259ZM41.079 0.224519L50.5331 22.284L50.5774 22.265L50.6216 22.2459L41.079 0.224519ZM43.9735 1.30066L65.6063 -9.0926L65.5965 -9.11298L65.5867 -9.13334L43.9735 1.30066ZM11.1736 14.7229L-10.8101 5.09393L11.1736 14.7229ZM27.7614 30.1866C42.1692 24.1447 47.3022 7.70849 41.3416 -5.064L-2.15512 15.2346C-7.0766 4.68856 -2.90845 -9.00158 9.19856 -14.0787L27.7614 30.1866ZM31.7697 26.7202C29.9274 29.2268 28.0164 30.0786 27.8635 30.1435L9.09647 -14.0356C3.52582 -11.6692 -2.39291 -7.84877 -6.90707 -1.70701L31.7697 26.7202ZM33.1573 24.3519C32.8612 25.028 32.4508 25.7774 31.8971 26.5452L-7.03448 -1.53201C-8.55921 0.582163 -9.80931 2.8091 -10.8101 5.09393L33.1573 24.3519ZM43.0366 23.7508C43.0366 9.26843 31.2869 -2.47568 16.8101 -2.47568V45.5243C4.78248 45.5243 -4.96337 35.7833 -4.96337 23.7508H43.0366ZM43.0366 38.3344V23.7508H-4.96337V38.3344H43.0366ZM16.8101 64.561C31.2896 64.561 43.0366 52.8138 43.0366 38.3344H-4.96337C-4.96337 26.3042 4.77984 16.561 16.8101 16.561V64.561ZM2.22651 64.561H16.8101V16.561H2.22651V64.561ZM-24 38.3344C-24 52.8138 -12.2529 64.561 2.22651 64.561V16.561C14.2568 16.561 24 26.3042 24 38.3344H-24ZM-24 26.9422V38.3344H24V26.9422H-24ZM-21.489 6.93537C-23.4026 13.266 -24 20.2129 -24 26.9422H24C24 24.9033 24.0971 23.3715 24.2228 22.2798C24.3518 21.16 24.4844 20.7359 24.4576 20.8246L-21.489 6.93537ZM-9.60538 -12.0738C-15.0964 -6.89298 -19.2156 -0.497105 -21.466 6.85987L24.4347 20.9001C24.2947 21.3578 24.0902 21.8001 23.8479 22.1843C23.6088 22.5634 23.4028 22.7754 23.3355 22.8389L-9.60538 -12.0738ZM5.52064 -21.9123C0.0347591 -19.5889 -5.33183 -16.2807 -9.95729 -11.735L23.6874 22.5C23.3665 22.8154 23.4178 22.6353 24.2403 22.287L5.52064 -21.9123ZM39.3868 -9.17379C33.3246 -21.7268 18.3754 -27.4879 5.33173 -21.8313L24.4292 22.206C13.6121 26.897 1.18622 22.1014 -3.83689 11.7L39.3868 -9.17379ZM41.2658 -5.22495L39.4475 -9.04712L-3.8976 11.5733L-2.07929 15.3955L41.2658 -5.22495ZM53.96 30.1867C68.3742 24.142 73.4946 7.70472 67.543 -5.05792L24.0406 15.2286C19.1273 4.6925 23.2836 -8.99878 35.3971 -14.0786L53.96 30.1867ZM57.9697 26.7188C56.1269 29.2264 54.215 30.0787 54.0621 30.1436L35.295 -14.0355C29.7243 -11.6691 23.8046 -7.84822 19.2901 -1.70467L57.9697 26.7188ZM59.3437 24.3804C59.0486 25.0489 58.6423 25.7875 58.0972 26.5436L19.1626 -1.52946C17.6603 0.554076 16.4243 2.74753 15.4308 4.99847L59.3437 24.3804ZM69.2723 23.7513C69.2723 9.26891 57.5226 -2.47523 43.0458 -2.47523V45.5248C31.0181 45.5248 21.2723 35.7837 21.2723 23.7513H69.2723ZM69.2723 38.3349V23.7513H21.2723V38.3349H69.2723ZM43.0458 64.5614C57.5252 64.5614 69.2723 52.8143 69.2723 38.3349H21.2723C21.2723 26.3046 31.0155 16.5614 43.0458 16.5614V64.5614ZM28.4622 64.5614H43.0458V16.5614H28.4622V64.5614ZM2.23566 38.3349C2.23566 52.8143 13.9828 64.5614 28.4622 64.5614V16.5614C40.4924 16.5614 50.2357 26.3046 50.2357 38.3349H2.23566ZM2.23566 26.9426V38.3349H50.2357V26.9426H2.23566ZM4.7559 6.82035C2.75103 13.2968 2.23566 20.4147 2.23566 26.9426H50.2357C50.2357 24.8174 50.3294 23.2519 50.4506 22.1608C50.5767 21.0259 50.6972 20.7303 50.6091 21.0147L4.7559 6.82035ZM16.5015 -11.9514C11.2435 -6.91624 7.02948 -0.610094 4.73293 6.89496L50.6321 20.9401C50.4669 21.48 50.2427 21.9373 50.0242 22.2814C49.8116 22.616 49.6635 22.7514 49.6999 22.7166L16.5015 -11.9514ZM31.625 -21.835C26.1117 -19.4721 20.9932 -16.2157 16.577 -12.0234L49.6244 22.7885C49.5863 22.8247 49.8121 22.593 50.5331 22.284L31.625 -21.835ZM65.5867 -9.13334C59.5227 -21.6945 44.5719 -27.4455 31.5365 -21.7968L50.6216 22.2459C39.8127 26.9297 27.3852 22.1435 22.3603 11.7347L65.5867 -9.13334ZM67.4247 -5.30791L65.6063 -9.0926L22.3406 11.6939L24.159 15.4786L67.4247 -5.30791ZM15.4308 4.99847C10.3137 16.5922 13.833 28.1528 20.2524 35.3739C26.125 41.9798 34.5576 45.5248 43.0458 45.5248V-2.47523C47.6832 -2.47523 52.5091 -0.586474 56.1263 3.48246C60.2905 8.16663 62.9059 16.3096 59.3437 24.3804L15.4308 4.99847ZM-10.8101 5.09393C-15.8781 16.6645 -12.3609 28.187 -5.95263 35.3909C-0.0863811 41.9854 8.33325 45.5243 16.8101 45.5243V-2.47568C21.4566 -2.47568 26.2896 -0.583127 29.911 3.48784C34.0744 8.16817 36.6885 16.29 33.1573 24.3519L-10.8101 5.09393Z" fill="url(#paint0_linear)" mask="url(#path-1-inside-1)"/>
</g>
<defs>
<linearGradient id="paint0_linear" x1="8.5" y1="-4.71947" x2="48.4714" y2="62.005" gradientUnits="userSpaceOnUse">
<stop stop-color="#04B0F1"/>
<stop offset="1" stop-color="#04AFF1" stop-opacity="0"/>
</linearGradient>
</defs>
</svg>
