<svg width="196" height="227" viewBox="0 0 196 227" fill="none" xmlns="http://www.w3.org/2000/svg">
<path opacity="0.2" d="M99.7263 225.62L98.9613 226.215L98.9477 226.184L98.8432 226.107L98.1817 225.614L98.1807 225.613C59.2245 196.778 31.3388 160.689 15.2239 118.328L15.2238 118.328C1.74757 82.9511 0.208714 52.435 0.538418 37.4344C0.565899 36.2892 0.662137 33.3564 0.840644 30.6511C0.930002 29.2969 1.03939 28.009 1.16979 27.0333C1.23522 26.5436 1.30422 26.1461 1.37519 25.8627C1.41094 25.7199 1.44359 25.6209 1.47029 25.559C1.47274 25.5533 1.47501 25.5483 1.4771 25.5438C24.6858 9.82846 58.8967 0.937056 97.8309 0.5H97.8332H97.8384H97.8436H97.8488H97.8539H97.8591H97.8643H97.8695H97.8746H97.8798H97.885H97.8902H97.8954H97.9005H97.9057H97.9109H97.9161H97.9213H97.9265H97.9317H97.9369H97.9421H97.9473H97.9525H97.9576H97.9628H97.968H97.9733H97.9784H97.9837H97.9889H97.9941H97.9993H98.0045H98.0097H98.0149H98.0201H98.0253H98.0305H98.0357H98.041H98.0462H98.0514H98.0566H98.0618H98.067H98.0723H98.0775H98.0827H98.0879H98.0932H98.0984H98.1036H98.1088H98.1141H98.1193H98.1245H98.1298H98.135H98.1402H98.1455H98.1507H98.1559H98.1612H98.1664H98.1717H98.1769H98.1821H98.1874H98.1926H98.1979H98.2031H98.2084H98.2136H98.2189H98.2241H98.2294H98.2346H98.2399H98.2451H98.2504H98.2556H98.2609H98.2661H98.2714H98.2766H98.2819H98.2872H98.2924H98.2977H98.3029H98.3082H98.3135H98.3187H98.324H98.3293H98.3345H98.3398H98.3451H98.3503H98.3556H98.3609H98.3662H98.3714H98.3767H98.382H98.3872H98.3925H98.3978H98.4031H98.4083H98.4136H98.4189H98.4242H98.4295H98.4347H98.44H98.4453H98.4506H98.4559H98.4612H98.4664H98.4717H98.477H98.4823H98.4876H98.4929H98.4982H98.5035H98.5088H98.514H98.5193H98.5246H98.5299H98.5352H98.5405H98.5458H98.5511H98.5564H98.5617H98.567H98.5723H98.5776H98.5829H98.5882H98.5935H98.5988H98.6041H98.6094H98.6147H98.62H98.6253H98.6306H98.6359H98.6412H98.6465H98.6518H98.6571H98.6624H98.6677H98.673H98.6783H98.6836H98.6889H98.6943H98.6996H98.7049H98.7102H98.7155H98.7208H98.7261H98.7314H98.7367H98.7421H98.7474H98.7527H98.758H98.7633H98.7686H98.7739H98.7793H98.7846H98.7899H98.7952H98.8005H98.8058H98.8111H98.8165H98.8218H98.8271H98.8324H98.8377H98.8431H98.8484H98.8537H98.859H98.8643H98.8697H98.875H98.8803H98.8856H98.8909H98.8963H98.9016H98.9069H98.9122H98.9176H98.9229H98.9282H98.9335H98.9389H98.9442H98.9495H98.9548H98.9602H98.9655H98.9708H98.9761H98.9815H98.9868H98.9921H98.9974H99.0028H99.0081H99.0134H99.0187H99.0241H99.0294H99.0347H99.0401H99.0454H99.0507H99.056H99.0614H99.0667H99.072H99.0773H99.0827H99.088H99.0933H99.0987H99.104H99.1093H99.1146H99.12H99.1253H99.1306H99.136H99.1413H99.1466H99.152H99.1573H99.1626H99.1679H99.1733H99.1786H99.1839H99.1893H99.1946H99.1999H99.2052H99.2106H99.2159H99.2212H99.2266H99.2319H99.2372H99.2426H99.2479H99.2532H99.2585H99.2639H99.2692H99.2745H99.2799H99.2852H99.2905H99.2958H99.3012H99.3065H99.3118H99.3171H99.3225H99.3278H99.3331H99.3385H99.3438H99.3491H99.3544H99.3598H99.3651H99.3704H99.3757H99.3811H99.3864H99.3917H99.397H99.4024H99.4077H99.413H99.4183H99.4237H99.429H99.4343H99.4396H99.445H99.4503H99.4556H99.4609H99.4663H99.4716H99.4769H99.4822H99.4875H99.4929H99.4982H99.5035H99.5088H99.5141H99.5195H99.5248H99.5301H99.5354H99.5407H99.5461H99.5514H99.5567H99.562H99.5673H99.5726H99.5779H99.5833H99.5886H99.5939H99.5992H99.6045H99.6098H99.6152H99.6205H99.6258H99.6311H99.6364H99.6417H99.647H99.6523H99.6576H99.6629H99.6683H99.6736H99.6789H99.6842H99.6895H99.6948H99.7001H99.7054H99.7107H99.716H99.7213H99.7266H99.7319H99.7372H99.7425H99.7478H99.7531H99.7584H99.7637H99.769H99.7743H99.7796H99.7849H99.7902H99.7955H99.8008H99.8061H99.8114H99.8167H99.822H99.8273H99.8326H99.8379H99.8432H99.8484H99.8537H99.859H99.8643H99.8696H99.8749H99.8802H99.8855H99.8908H99.896H99.9013H99.9066H99.9119H99.9172H99.9225H99.9277H99.933H99.9383H99.9436H99.9489H99.9541H99.9594H99.9647H99.97H99.9752H99.9805H99.9858H99.991H99.9963H100.002H100.007H100.012H100.017H100.023H100.028H100.033H100.038H100.044H100.049H100.054H100.06H100.065H100.07H100.075H100.081H100.086H100.091H100.096H100.102H100.107H100.112H100.117H100.123H100.128H100.133H100.138H100.144H100.149H100.154H100.159H100.165H100.17H100.175H100.18H100.186H100.191H100.196H100.201H100.206H100.212H100.217H100.222H100.227H100.233H100.238H100.243H100.248H100.254H100.259H100.264H100.269H100.274H100.28H100.285H100.29H100.295H100.301H100.306H100.311H100.316H100.321H100.327H100.332H100.337H100.342H100.348H100.353H100.358H100.363H100.368H100.374H100.379H100.384H100.389H100.394H100.4H100.405H100.41H100.415H100.42H100.426H100.431H100.436H100.441H100.446H100.451H100.457H100.462H100.467H100.472H100.477H100.483H100.488H100.493H100.498H100.503H100.508H100.514H100.519H100.524H100.529C120.916 0.5 140.346 2.87596 156.714 7.08389C173.054 11.2848 186.294 17.2995 194.398 24.5573C194.403 24.5705 194.409 24.5876 194.416 24.6091C194.445 24.7014 194.481 24.8399 194.52 25.0293C194.598 25.4061 194.685 25.947 194.774 26.6438C194.951 28.0353 195.133 30.0217 195.27 32.506C195.545 37.4736 195.641 44.4169 195.174 52.5495C192.919 91.9603 177.522 166.809 99.7315 225.616L99.7263 225.62ZM1.49278 25.514C1.49281 25.514 1.49199 25.5154 1.49026 25.5179C1.49189 25.5151 1.49276 25.5139 1.49278 25.514Z" stroke="url(#paint0_linear)"/>
<defs>
<linearGradient id="paint0_linear" x1="156.8" y1="56.9779" x2="-73.3875" y2="156.8" gradientUnits="userSpaceOnUse">
<stop stop-color="#0097D1"/>
<stop offset="1" stop-color="#0097D1" stop-opacity="0"/>
</linearGradient>
</defs>
</svg>
