<?xml version="1.0" encoding="utf-8"?>
<!-- Generator: Adobe Illustrator 21.0.0, SVG Export Plug-In . SVG Version: 6.00 Build 0)  -->
<svg version="1.1" id="Layer_1" xmlns="http://www.w3.org/2000/svg" xmlns:xlink="http://www.w3.org/1999/xlink" x="0px" y="0px"
	 viewBox="0 0 20 20" style="enable-background:new 0 0 20 20;" xml:space="preserve">
<style type="text/css">
	.st0{fill:#FFFAEF;}
	.st1{fill:#00B8AD;}
	.st2{fill:#FFB412;}
</style>
<path class="st0" d="M10.1,16.1c0,0-1.2,1.1-2.2-0.4C7.9,15.8,8.8,16.8,10.1,16.1z"/>
<g>
	<g>
		<path class="st1" d="M4,15.1L4,15.1L4,15.1c-0.1-0.4-0.2-0.6-0.2-0.8c-0.1-1-0.2-1.4,0.1-1.8c0.3-0.5,0.7-0.8,1.1-1.1
			c0.4-0.3,0.9-0.6,1.2-1.2c0.3-0.5,0.3-1.1,0-1.5C5.8,8.3,5.1,8.1,4.3,8.4c-0.5,0.2-0.8,0.3-1,0.4c-0.7,0.3-0.7,0.3-1.6-1
			C1.6,7.7,1.5,7.5,1.4,7.4l0-0.1l0.1-0.1C3.2,5.8,5.2,5.4,7,6c1.3,0.5,2.2,1.5,2.4,2.7c0.2,1.4-0.6,2.8-2.1,4c-1,0.8-1,1.3-0.9,1.6
			c0,0.2,0,0.3-0.1,0.5C6,15,5.5,15.1,4,15.1z M5.1,8.1c0.5,0,1,0.2,1.3,0.6c0.4,0.5,0.4,1.1,0.1,1.7c-0.3,0.6-0.8,0.9-1.2,1.2
			c-0.4,0.3-0.8,0.6-1.1,1C3.8,13,3.9,13.3,4,14.3c0,0.2,0.1,0.4,0.1,0.6c1.3,0,1.8-0.1,2-0.2c0.1-0.1,0.1-0.1,0-0.3
			c0-0.4-0.1-1,1-1.8c1.5-1.1,2.3-2.5,2.1-3.8C9.1,7.7,8.2,6.7,7,6.2C5.3,5.6,3.3,6,1.6,7.3c0.1,0.1,0.2,0.3,0.2,0.4
			c0.4,0.6,0.6,1,0.8,1.1c0.1,0.1,0.2,0,0.5-0.1c0.2-0.1,0.6-0.3,1.1-0.4C4.5,8.1,4.8,8.1,5.1,8.1z"/>
	</g>
	<g>
		<path class="st1" d="M4.9,19.1c-0.8,0-1.6-0.5-1.6-1.5c0-1,0.8-1.5,1.6-1.5c0.8,0,1.6,0.5,1.6,1.5c0,0.5-0.2,0.9-0.5,1.1
			C5.7,18.9,5.4,19.1,4.9,19.1z M4.9,16.2c-0.7,0-1.4,0.4-1.4,1.3c0,0.9,0.7,1.3,1.4,1.3c0.7,0,1.4-0.4,1.4-1.3
			C6.3,16.7,5.6,16.2,4.9,16.2z"/>
	</g>
	<g>
		<g>
			<path class="st1" d="M4,15.5H3.6l-0.1-0.4c0-0.3-0.1-0.5-0.1-0.7l0,0c-0.2-1-0.2-1.5,0.2-2.1c0,0,0.1-0.1,0.1-0.1l0.2,0.1
				c0,0-0.1,0.1-0.1,0.1c-0.3,0.5-0.3,1-0.1,2l0,0c0,0.2,0.1,0.4,0.1,0.7l0,0.3H4c1.6,0,2.1-0.1,2.4-0.4c0.1-0.1,0.1-0.2,0.2-0.4
				l0.2,0c0,0.2-0.1,0.4-0.2,0.5C6.2,15.4,5.7,15.5,4,15.5z"/>
		</g>
		<g>
			<path class="st1" d="M6.2,9.6l-0.2,0c0,0,0-0.1,0-0.1c0-0.1,0-0.3-0.1-0.4C5.8,8.8,5.4,8.6,5,8.7l0-0.2c0.5,0,1,0.2,1.2,0.5
				c0.1,0.1,0.1,0.3,0.1,0.5C6.2,9.5,6.2,9.5,6.2,9.6z"/>
		</g>
		<g>
			<path class="st1" d="M2.8,9.4C2.3,9.4,2,9,1.4,8l0,0C1.3,7.9,1.2,7.7,1.1,7.6L0.8,7.2l0.3-0.3C2,6.2,2.9,5.7,3.8,5.5l0,0.2
				C3,5.9,2.1,6.4,1.3,7.1L1.1,7.2l0.2,0.2c0.1,0.2,0.2,0.3,0.3,0.4L1.4,8l0.1-0.1c0.6,1,0.8,1.3,1.3,1.3c0.1,0,0.3-0.1,0.4-0.1
				l0.1,0.2C3.1,9.3,3,9.4,2.8,9.4z"/>
		</g>
		<g>
			<path class="st1" d="M8.8,11.9l-0.1-0.1c0.7-0.8,1.1-1.7,1.1-2.6c0-0.2,0-0.5-0.1-0.7l0.2,0C9.8,8.7,9.9,9,9.9,9.2
				C9.9,10.1,9.5,11,8.8,11.9z"/>
		</g>
	</g>
	<g>
		<g>
			<path class="st1" d="M5,19.5L5,19.5c-1,0-2-0.7-2-1.9c0-0.2,0-0.5,0.1-0.7L3.3,17c-0.1,0.2-0.1,0.4-0.1,0.6
				c0,1.1,0.9,1.7,1.8,1.7L5,19.5z M6.7,18.5l-0.2-0.1c0.1-0.2,0.2-0.5,0.2-0.8c0-0.4-0.1-0.7-0.3-1l0.2-0.1
				c0.2,0.3,0.3,0.7,0.3,1.1C6.9,17.9,6.9,18.2,6.7,18.5z"/>
		</g>
	</g>
</g>
<g>
	<g>
		<path class="st2" d="M11.8,13.5h-0.1l0-0.1c0-0.4-0.1-0.7-0.1-1c-0.2-1.3-0.3-1.8,0.1-2.4c0.4-0.6,1-1,1.5-1.4
			c0.6-0.4,1.2-0.8,1.6-1.5c0.4-0.7,0.4-1.4-0.1-2c-0.5-0.6-1.5-0.8-2.5-0.5c-0.6,0.2-1.1,0.4-1.4,0.6c-0.9,0.5-1,0.4-2.1-1.3
			C8.6,3.6,8.5,3.5,8.3,3.2L8.3,3.1l0.1-0.1c2.3-1.9,5-2.5,7.4-1.6c1.7,0.7,2.9,2,3.1,3.6c0.3,1.8-0.8,3.7-2.8,5.2
			c-1.4,1-1.3,1.7-1.3,2.2c0,0.2,0,0.4-0.1,0.6C14.4,13.4,13.7,13.5,11.8,13.5z M13.2,4.2c0.7,0,1.3,0.3,1.7,0.7
			c0.5,0.6,0.5,1.5,0.1,2.2c-0.4,0.8-1.1,1.2-1.6,1.6c-0.5,0.4-1.1,0.8-1.4,1.4c-0.3,0.5-0.3,1-0.1,2.3c0,0.3,0.1,0.5,0.1,0.9
			c1.7,0,2.4-0.1,2.6-0.3c0.1-0.1,0.1-0.2,0.1-0.4c0-0.5-0.1-1.3,1.4-2.4c2-1.5,3-3.3,2.7-5c-0.2-1.5-1.3-2.8-3-3.4
			c-2.3-0.9-4.9-0.3-7.1,1.5c0.1,0.2,0.2,0.3,0.3,0.5c0.5,0.8,0.8,1.3,1,1.4c0.2,0.1,0.3,0.1,0.7-0.2c0.3-0.2,0.7-0.4,1.4-0.6
			C12.4,4.2,12.8,4.2,13.2,4.2z"/>
	</g>
	<g>
		<path class="st2" d="M13,18.8c-1,0-2.1-0.6-2.1-2c0-1.4,1.1-2,2.1-2c1,0,2.1,0.7,2.1,2C15.1,18.1,14,18.8,13,18.8z M13,15
			c-0.9,0-1.8,0.5-1.8,1.8c0,1.2,0.9,1.8,1.8,1.8c0.9,0,1.8-0.5,1.8-1.8C14.8,15.5,13.9,15,13,15z"/>
	</g>
	<g>
		<g>
			<path class="st2" d="M11.8,14.1h-0.6l-0.1-0.6c0-0.4-0.1-0.7-0.1-1c-0.2-1.4-0.3-2,0.2-2.8c0,0,0,0,0-0.1l0.2,0.1l0,0.1
				c-0.5,0.7-0.4,1.4-0.2,2.7c0,0.3,0.1,0.6,0.1,1l0.1,0.4h0.4c2.1,0,2.8-0.1,3.1-0.5c0.1-0.1,0.2-0.2,0.2-0.4l0.2,0
				c0,0.2-0.1,0.4-0.3,0.5C14.7,14,14,14.1,11.8,14.1z"/>
		</g>
		<g>
			<path class="st2" d="M14.7,6.2l-0.2,0c0,0,0-0.1,0-0.1c0-0.2,0-0.3-0.1-0.5C14.1,5.2,13.5,5,12.9,5l0-0.2
				c0.7-0.1,1.3,0.2,1.6,0.7c0.1,0.2,0.2,0.4,0.2,0.6C14.7,6.1,14.7,6.2,14.7,6.2z"/>
		</g>
		<g>
			<path class="st2" d="M10.1,6c-0.7,0-1-0.5-1.9-1.8C8.1,4,8,3.8,7.8,3.6L7.5,3L8,2.6c1.1-0.9,2.2-1.5,3.4-1.8L11.5,1
				C10.3,1.4,9.2,2,8.1,2.8L7.8,3.1L8,3.4C8.2,3.6,8.3,3.8,8.4,4c0.8,1.3,1.1,1.7,1.7,1.7c0.1,0,0.3,0,0.5-0.1l0.1,0.2
				C10.5,5.9,10.3,6,10.1,6z"/>
		</g>
		<g>
			<path class="st2" d="M18,9.3l-0.2-0.2c0.9-1.1,1.4-2.3,1.4-3.5c0-0.3,0-0.6-0.1-0.9l0.2-0.1c0.1,0.3,0.1,0.6,0.1,1
				C19.5,6.9,19,8.2,18,9.3z"/>
		</g>
	</g>
	<g>
		<g>
			<path class="st2" d="M13,19.3L13,19.3c-1.3,0-2.6-0.9-2.6-2.6c0-0.3,0-0.6,0.1-0.9l0.2,0.1c-0.1,0.2-0.1,0.5-0.1,0.8
				c0,1.5,1.2,2.3,2.4,2.3L13,19.3z M15.4,18l-0.2-0.1c0.2-0.3,0.2-0.7,0.2-1.1c0-0.5-0.1-1-0.4-1.4l0.2-0.1
				c0.3,0.4,0.5,0.9,0.5,1.5C15.6,17.2,15.5,17.6,15.4,18z"/>
		</g>
	</g>
</g>
</svg>
