<svg width="28" height="28" viewBox="0 0 28 28" fill="none" xmlns="http://www.w3.org/2000/svg">
<path fill-rule="evenodd" clip-rule="evenodd" d="M6.98133 24.5H4.66667C4.02267 24.5 3.5 23.9774 3.5 23.3334V16.3334C3.5 15.6894 4.02267 15.1667 4.66667 15.1667H6.98133C7.62533 15.1667 8.148 15.6894 8.148 16.3334V23.3334C8.148 23.9774 7.62533 24.5 6.98133 24.5Z" stroke="#0097D1" stroke-width="1.5" stroke-linecap="round" stroke-linejoin="round"/>
<path d="M15.1204 19.8333H17.8318C18.3346 19.8333 18.8234 19.67 19.2259 19.3666L22.0329 17.2526C22.7341 16.7253 23.7141 16.7953 24.3336 17.4171V17.4171C25.0208 18.1078 25.0208 19.2266 24.3336 19.9161L21.9256 22.3346C21.2769 22.9856 20.4509 23.4301 19.5503 23.611L16.1448 24.2946C15.4704 24.43 14.7739 24.4136 14.1054 24.2456L11.0266 23.4733C10.6591 23.38 10.2799 23.3333 9.8996 23.3333H8.14844" stroke="#0097D1" stroke-width="1.5" stroke-linecap="round" stroke-linejoin="round"/>
<path d="M15.1204 19.8334H16.8459C17.8178 19.8334 18.6064 19.0424 18.6064 18.0659V17.7124C18.6064 16.9015 18.0569 16.1945 17.2729 15.9985L14.6094 15.33C14.1766 15.2215 13.7321 15.1667 13.2864 15.1667V15.1667C12.2096 15.1667 11.1561 15.4864 10.2601 16.0872L8.14844 17.5" stroke="#0097D1" stroke-width="1.5" stroke-linecap="round" stroke-linejoin="round"/>
<path fill-rule="evenodd" clip-rule="evenodd" d="M17.8346 4.27115L17.4274 4.70632L17.0191 4.27115C16.1242 3.31682 14.6402 3.23865 13.6509 4.09265V4.09265C12.6394 4.96532 12.5192 6.47849 13.3511 7.52615C14.5411 9.02415 15.9049 10.5035 17.4274 11.6667C18.9884 10.4743 20.3814 8.95065 21.5924 7.41415C22.3787 6.41665 22.2166 4.96882 21.2576 4.13932L21.2132 4.10082C20.2146 3.23865 18.7294 3.31682 17.8346 4.27115V4.27115Z" stroke="#0097D1" stroke-width="1.5" stroke-linecap="round" stroke-linejoin="round"/>
</svg>
