<svg width="19" height="21" viewBox="0 0 19 21" fill="none" xmlns="http://www.w3.org/2000/svg">
<g clip-path="url(#clip0)">
<path d="M9.50425 5.78318C6.80693 5.78318 4.63126 7.88728 4.63126 10.4959C4.63126 13.1045 6.80693 15.2086 9.50425 15.2086C12.2016 15.2086 14.3772 13.1045 14.3772 10.4959C14.3772 7.88728 12.2016 5.78318 9.50425 5.78318ZM9.50425 13.5597C7.76117 13.5597 6.33617 12.1857 6.33617 10.4959C6.33617 8.80603 7.75693 7.43201 9.50425 7.43201C11.2516 7.43201 12.6723 8.80603 12.6723 10.4959C12.6723 12.1857 11.2473 13.5597 9.50425 13.5597ZM15.7132 5.5904C15.7132 6.20154 15.2042 6.68962 14.5766 6.68962C13.9446 6.68962 13.44 6.19744 13.44 5.5904C13.44 4.98337 13.9489 4.49119 14.5766 4.49119C15.2042 4.49119 15.7132 4.98337 15.7132 5.5904ZM18.9406 6.70603C18.8685 5.23357 18.5208 3.92927 17.4054 2.85466C16.2942 1.78005 14.9455 1.44373 13.423 1.3699C11.8538 1.28376 7.15045 1.28376 5.58126 1.3699C4.06295 1.43962 2.71429 1.77595 1.59889 2.85056C0.483489 3.92517 0.139962 5.22947 0.063623 6.70193C-0.0254394 8.21951 -0.0254394 12.7681 0.063623 14.2857C0.135721 15.7582 0.483489 17.0625 1.59889 18.1371C2.71429 19.2117 4.05871 19.548 5.58126 19.6218C7.15045 19.708 11.8538 19.708 13.423 19.6218C14.9455 19.5521 16.2942 19.2158 17.4054 18.1371C18.5165 17.0625 18.8643 15.7582 18.9406 14.2857C19.0297 12.7681 19.0297 8.22361 18.9406 6.70603ZM16.9134 15.914C16.5826 16.7179 15.9422 17.3373 15.1067 17.6613C13.8556 18.1412 10.8868 18.0304 9.50425 18.0304C8.12166 18.0304 5.14867 18.1371 3.90179 17.6613C3.07054 17.3414 2.43014 16.722 2.0951 15.914C1.59889 14.7041 1.7134 11.833 1.7134 10.4959C1.7134 9.15876 1.60313 6.28357 2.0951 5.07771C2.4259 4.2738 3.0663 3.65447 3.90179 3.33044C5.15291 2.85056 8.12166 2.9613 9.50425 2.9613C10.8868 2.9613 13.8598 2.85466 15.1067 3.33044C15.938 3.65037 16.5784 4.2697 16.9134 5.07771C17.4096 6.28767 17.2951 9.15876 17.2951 10.4959C17.2951 11.833 17.4096 14.7082 16.9134 15.914Z" fill="#0097D1"/>
</g>
<defs>
<clipPath id="clip0">
<rect width="19" height="21" fill="white"/>
</clipPath>
</defs>
</svg>
