<svg width="26" height="26" viewBox="0 0 26 26" fill="none" xmlns="http://www.w3.org/2000/svg">
<path fill-rule="evenodd" clip-rule="evenodd" d="M3.25 7.36669V7.36669C3.25 8.01669 3.575 8.55835 4.11667 8.99169L10.6167 13.4334C12.1333 14.4084 13.975 14.4084 15.4917 13.4334L21.9917 9.10002C22.425 8.55835 22.75 8.01669 22.75 7.36669V7.36669C22.75 6.28335 21.8833 5.41669 20.8 5.41669H5.2C4.11667 5.41669 3.25 6.28335 3.25 7.36669Z" stroke="#0097D1" stroke-width="1.5" stroke-linecap="round" stroke-linejoin="round"/>
<path d="M3.25 7.58337V18.4167C3.25 19.6084 4.225 20.5834 5.41667 20.5834H20.5833C21.775 20.5834 22.75 19.6084 22.75 18.4167V7.58337" stroke="#0097D1" stroke-width="1.5" stroke-linecap="round" stroke-linejoin="round"/>
<path opacity="0.5" d="M3.88696 19.9464L10.4888 13.3445" stroke="#0097D1" stroke-width="1.5" stroke-linecap="round" stroke-linejoin="round"/>
<path opacity="0.5" d="M15.5566 13.39L22.113 19.9463" stroke="#0097D1" stroke-width="1.5" stroke-linecap="round" stroke-linejoin="round"/>
</svg>
