<?xml version="1.0" encoding="UTF-8" standalone="no"?>
<!DOCTYPE svg PUBLIC "-//W3C//DTD SVG 1.1//EN" "http://www.w3.org/Graphics/SVG/1.1/DTD/svg11.dtd">
<svg version="1.1" xmlns="http://www.w3.org/2000/svg" xmlns:xlink="http://www.w3.org/1999/xlink" preserveAspectRatio="xMidYMid meet" viewBox="0 0 1200 800" width="1200" height="800"><defs><path d="M882.57 626.9L882.57 626.87L882.7 626.87C882.7 514.21 882.7 451.62 882.7 439.1C882.7 347.24 862.92 276.47 755.53 276.47C703.9 276.47 669.26 304.8 655.12 331.66C655.02 331.66 654.52 331.66 653.62 331.66L653.62 285.05L551.8 285.05L551.8 626.87L657.82 626.87C657.82 525.32 657.82 468.9 657.82 457.62C657.82 413.05 666.27 369.96 721.46 369.96C775.84 369.96 776.65 420.82 776.65 460.47C776.65 471.57 776.65 527.04 776.65 626.9L882.57 626.9Z" id="d1Q9iG2ykX"></path><path d="M379.15 285.07L485.3 285.07L485.3 626.9L379.15 626.9L379.15 285.07Z" id="eQ5HB9aB"></path><path d="M370.7 176.38C370.7 210.32 398.24 238.44 432.18 238.44C466.12 238.44 493.66 210.32 493.66 176.38C493.64 142.44 466.1 114.9 432.18 114.9C398.24 114.9 370.7 142.44 370.7 176.38Z" id="b53mlNSol"></path></defs><g><g><g><use xlink:href="#d1Q9iG2ykX" opacity="1" fill="#0097d1" fill-opacity="1"></use><g><use xlink:href="#d1Q9iG2ykX" opacity="1" fill-opacity="0" stroke="#000000" stroke-width="1" stroke-opacity="0"></use></g></g><g><use xlink:href="#eQ5HB9aB" opacity="1" fill="#0097d1" fill-opacity="1"></use><g><use xlink:href="#eQ5HB9aB" opacity="1" fill-opacity="0" stroke="#000000" stroke-width="1" stroke-opacity="0"></use></g></g><g><use xlink:href="#b53mlNSol" opacity="1" fill="#0097d1" fill-opacity="1"></use><g><use xlink:href="#b53mlNSol" opacity="1" fill-opacity="0" stroke="#000000" stroke-width="1" stroke-opacity="0"></use></g></g></g></g></svg>