<svg width="104" height="114" viewBox="0 0 104 114" fill="none" xmlns="http://www.w3.org/2000/svg">
<g filter="url(#filter0_d)">
<path d="M52.1556 85.8568L51.9666 85.7137C40.8159 77.3145 32.8308 66.7997 28.2162 54.4555C24.3575 44.1475 23.9165 35.2552 24.011 30.8807C24.0268 30.2126 24.1213 27.4606 24.326 27.3174C30.9881 22.7202 40.8001 20.1273 51.9509 20C52.2029 20 52.4706 20 52.7226 20C64.3931 20 74.9768 22.7679 79.6545 27.047C79.7962 27.1902 80.1742 30.5466 79.9065 35.2871C79.2608 46.7722 74.8508 68.5813 52.5809 85.7137L52.2186 86L52.1556 85.8568Z" fill="url(#paint0_linear)"/>
</g>
<path fill-rule="evenodd" clip-rule="evenodd" d="M40.875 49.5V49.5C40.875 43.0791 46.0791 37.875 52.5 37.875V37.875C58.9209 37.875 64.125 43.0791 64.125 49.5V49.5C64.125 55.9209 58.9209 61.125 52.5 61.125V61.125C46.0791 61.125 40.875 55.9209 40.875 49.5Z" stroke="white" stroke-width="1.5" stroke-linecap="round" stroke-linejoin="round"/>
<path d="M52.5013 54.6667V44.3333" stroke="white" stroke-width="1.5" stroke-linecap="round" stroke-linejoin="round"/>
<path d="M56.375 50.7917L52.5 54.6667L48.625 50.7917" stroke="white" stroke-width="1.5" stroke-linecap="round" stroke-linejoin="round"/>
<defs>
<filter id="filter0_d" x="0" y="0" width="104" height="114" filterUnits="userSpaceOnUse" color-interpolation-filters="sRGB">
<feFlood flood-opacity="0" result="BackgroundImageFix"/>
<feColorMatrix in="SourceAlpha" type="matrix" values="0 0 0 0 0 0 0 0 0 0 0 0 0 0 0 0 0 0 127 0"/>
<feOffset dy="4"/>
<feGaussianBlur stdDeviation="12"/>
<feColorMatrix type="matrix" values="0 0 0 0 0.100937 0 0 0 0 0.437963 0 0 0 0 0.749063 0 0 0 0.2 0"/>
<feBlend mode="normal" in2="BackgroundImageFix" result="effect1_dropShadow"/>
<feBlend mode="normal" in="SourceGraphic" in2="effect1_dropShadow" result="shape"/>
</filter>
<linearGradient id="paint0_linear" x1="32.925" y1="-2.60573" x2="105.679" y2="12.6361" gradientUnits="userSpaceOnUse">
<stop stop-color="#006AAE"/>
<stop offset="1" stop-color="#00ADE4"/>
</linearGradient>
</defs>
</svg>
