<svg width="114" height="20" viewBox="0 0 114 20" fill="none" xmlns="http://www.w3.org/2000/svg">
<path fill-rule="evenodd" clip-rule="evenodd" d="M10 14.3625L5.14917 16.6667L6.15667 11.5667L2.5 7.82667L7.64917 7.18417L10 2.5L12.3508 7.18417L17.5 7.82667L13.8433 11.5667L14.8508 16.6667L10 14.3625Z" fill="#F2C94C"/>
<path fill-rule="evenodd" clip-rule="evenodd" d="M33 14.3625L28.1492 16.6667L29.1567 11.5667L25.5 7.82667L30.6492 7.18417L33 2.5L35.3508 7.18417L40.5 7.82667L36.8433 11.5667L37.8508 16.6667L33 14.3625Z" fill="#F2C94C"/>
<path fill-rule="evenodd" clip-rule="evenodd" d="M55.5 14.3625L50.4066 16.6667L51.4645 11.5667L47.625 7.82667L53.0316 7.18417L55.5 2.5L57.9684 7.18417L63.375 7.82667L59.5355 11.5667L60.5934 16.6667L55.5 14.3625Z" fill="#F2C94C"/>
<path fill-rule="evenodd" clip-rule="evenodd" d="M78 14.3625L73.1492 16.6667L74.1567 11.5667L70.5 7.82667L75.6492 7.18417L78 2.5L80.3508 7.18417L85.5 7.82667L81.8433 11.5667L82.8508 16.6667L78 14.3625Z" fill="#F2C94C"/>
<path fill-rule="evenodd" clip-rule="evenodd" d="M104 14.3625L99.1492 16.6667L100.157 11.5667L96.5 7.82667L101.649 7.18417L104 2.5L106.351 7.18417L111.5 7.82667L107.843 11.5667L108.851 16.6667L104 14.3625Z" stroke="#F2C94C" stroke-width="1.5" stroke-linecap="round" stroke-linejoin="round"/>
</svg>
