<svg width="17" height="18" viewBox="0 0 17 18" fill="none" xmlns="http://www.w3.org/2000/svg">
<path d="M8.30936 5.11261e-05C3.76791 5.11261e-05 0.0665415 3.8193 0.0665415 8.50539C0.0665415 10.0073 0.449154 11.4664 1.16447 12.7538L0 17.1652L4.36678 15.9808C5.57284 16.6588 6.92862 17.0193 8.30936 17.0193C12.8508 17.0193 16.5522 13.2001 16.5522 8.51397C16.5522 6.23959 15.6955 4.10253 14.14 2.49758C13.3775 1.70277 12.4692 1.07259 11.4681 0.643789C10.467 0.214988 9.39325 -0.0038451 8.30936 5.11261e-05ZM8.31767 1.43334C10.1476 1.43334 11.861 2.17144 13.1586 3.51033C13.7954 4.1672 14.3002 4.94732 14.6442 5.80596C14.9882 6.6646 15.1646 7.58486 15.1631 8.51397C15.1631 12.4105 12.0856 15.5774 8.30936 15.5774C7.07834 15.5774 5.87228 15.2427 4.82425 14.5904L4.57472 14.4445L1.97961 15.1483L2.66997 12.5392L2.50362 12.2646C1.81653 11.1391 1.45311 9.83554 1.45559 8.50539C1.46391 4.6089 4.53313 1.43334 8.31767 1.43334ZM5.38985 4.57457C5.25677 4.57457 5.03219 4.62606 4.84089 4.84063C4.6579 5.05519 4.11725 5.57873 4.11725 6.61722C4.11725 7.6643 4.85752 8.66846 4.94902 8.81436C5.06546 8.96027 6.41293 11.1059 8.48403 12.0157C8.97477 12.2474 9.35738 12.3761 9.65682 12.4705C10.1476 12.6336 10.5967 12.6079 10.9544 12.5564C11.3536 12.4963 12.1688 12.0414 12.3434 11.5436C12.5181 11.0458 12.5181 10.6253 12.4682 10.5309C12.41 10.4451 12.2769 10.3936 12.0689 10.2992C11.861 10.179 10.8462 9.66404 10.6633 9.59538C10.472 9.52672 10.3555 9.49239 10.1975 9.69837C10.0644 9.91293 9.66514 10.3936 9.54869 10.5309C9.42392 10.6768 9.30748 10.6939 9.10785 10.591C8.89159 10.4794 8.22618 10.2562 7.44432 9.5353C6.82881 8.96885 6.42124 8.27366 6.29648 8.0591C6.19667 7.85311 6.28816 7.72438 6.38797 7.62997C6.47947 7.53556 6.61255 7.38107 6.69573 7.25233C6.80386 7.13218 6.83713 7.03777 6.90367 6.90045C6.97021 6.75454 6.93694 6.63439 6.88703 6.5314C6.83713 6.43699 6.42124 5.37275 6.24657 4.9522C6.08022 4.54024 5.91387 4.59173 5.78078 4.58315C5.66434 4.58315 5.53125 4.57457 5.38985 4.57457Z" fill="#0097D1"/>
</svg>
